<svg width="35" height="35" viewBox="0 0 35 35" fill="none" xmlns="http://www.w3.org/2000/svg">
<path d="M17.1007 0.848877C7.71175 0.848877 0.100708 8.45992 0.100708 17.8489C0.100708 27.2378 7.71175 34.8489 17.1007 34.8489C26.4897 34.8489 34.1007 27.2378 34.1007 17.8489C34.1007 8.45992 26.4897 0.848877 17.1007 0.848877ZM12.9392 24.895H9.49675V13.8167H12.9392V24.895ZM11.1967 12.4567C10.1095 12.4567 9.40644 11.6864 9.40644 10.7337C9.40644 9.76148 10.1307 9.01419 11.241 9.01419C12.3513 9.01419 13.0313 9.76148 13.0526 10.7337C13.0526 11.6864 12.3513 12.4567 11.1967 12.4567ZM25.5122 24.895H22.0697V18.7555C22.0697 17.3265 21.5703 16.3561 20.3254 16.3561C19.3745 16.3561 18.8096 17.013 18.5599 17.6452C18.4678 17.8701 18.4448 18.1889 18.4448 18.5059V24.8933H15.0005V17.3495C15.0005 15.9665 14.9562 14.8101 14.9102 13.8149H17.9011L18.0587 15.3538H18.1278C18.5811 14.6313 19.6914 13.5652 21.549 13.5652C23.8139 13.5652 25.5122 15.0828 25.5122 18.3447V24.895Z" fill="white"/>
</svg>
