<svg width="35" height="35" viewBox="0 0 35 35" fill="none" xmlns="http://www.w3.org/2000/svg">
<path d="M17.1007 0.848877C7.71175 0.848877 0.100708 8.45992 0.100708 17.8489C0.100708 27.2378 7.71175 34.8489 17.1007 34.8489C26.4897 34.8489 34.1007 27.2378 34.1007 17.8489C34.1007 8.45992 26.4897 0.848877 17.1007 0.848877ZM24.0158 14.7747C24.0229 14.9199 24.0247 15.0651 24.0247 15.2068C24.0247 19.6339 20.6583 24.7356 14.4994 24.7356C12.6795 24.7387 10.8974 24.216 9.36748 23.2304C9.62779 23.2623 9.89519 23.2747 10.1661 23.2747C11.7351 23.2747 13.1783 22.7417 14.324 21.8421C13.6258 21.8284 12.9493 21.5972 12.3887 21.1807C11.8281 20.7643 11.4115 20.1833 11.1967 19.5188C11.6982 19.6141 12.2147 19.5941 12.7073 19.4603C11.9494 19.3071 11.2679 18.8965 10.7783 18.2981C10.2887 17.6997 10.0211 16.9504 10.0209 16.1772V16.1365C10.4725 16.3862 10.9896 16.5385 11.5385 16.5562C10.8281 16.0832 10.3251 15.3567 10.1326 14.5253C9.94 13.6938 10.0724 12.8202 10.5026 12.083C11.3436 13.1172 12.3925 13.9632 13.5813 14.5663C14.7701 15.1694 16.0722 15.5161 17.4035 15.584C17.2343 14.8656 17.3071 14.1114 17.6107 13.4386C17.9143 12.7659 18.4317 12.2123 19.0824 11.8639C19.7331 11.5156 20.4806 11.3919 21.2089 11.5123C21.9371 11.6326 22.6051 11.9901 23.1091 12.5293C23.8585 12.381 24.5771 12.1062 25.2341 11.7165C24.9844 12.4923 24.4615 13.1512 23.7626 13.5705C24.4264 13.4906 25.0745 13.3121 25.6857 13.0411C25.2368 13.7138 24.6713 14.3009 24.0158 14.7747Z" fill="white"/>
</svg>
