<svg width="35" height="35" viewBox="0 0 35 35" fill="none" xmlns="http://www.w3.org/2000/svg">
<rect x="0.100708" y="0.848877" width="34" height="34" rx="17" fill="white"/>
<path d="M23.3619 11.2002C23.3569 11.1889 23.3486 11.18 23.3385 11.1752C22.1715 10.5505 20.9399 10.105 19.6747 9.84997C19.6632 9.84748 19.6513 9.84927 19.6407 9.85511C19.6301 9.86094 19.6214 9.87052 19.6158 9.88247C19.4481 10.2376 19.2958 10.6023 19.1597 10.9753C17.7958 10.7338 16.4085 10.7338 15.0446 10.9753C14.9075 10.6014 14.7528 10.2365 14.5812 9.88247C14.5754 9.87078 14.5666 9.86142 14.5561 9.85563C14.5456 9.84983 14.5338 9.84786 14.5223 9.84997C13.257 10.1045 12.0253 10.55 10.8584 11.1752C10.8484 11.1802 10.84 11.1886 10.8343 11.1994C8.50075 15.265 7.8615 19.2307 8.17509 23.1473C8.17597 23.1569 8.1785 23.1662 8.18252 23.1746C8.18655 23.1831 8.19198 23.1905 8.19851 23.1964C9.55731 24.3702 11.0772 25.2661 12.6932 25.846C12.7045 25.85 12.7167 25.8498 12.728 25.8455C12.7393 25.8412 12.7492 25.8329 12.7563 25.8219C13.1034 25.2709 13.411 24.6875 13.6758 24.0775C13.6795 24.0691 13.6815 24.06 13.6819 24.0506C13.6823 24.0412 13.681 24.0319 13.678 24.0231C13.6751 24.0144 13.6706 24.0065 13.6648 23.9999C13.6591 23.9934 13.6522 23.9883 13.6446 23.9851C13.1597 23.7686 12.6901 23.5076 12.2405 23.2046C12.2323 23.199 12.2255 23.1912 12.2205 23.1817C12.2156 23.1723 12.2127 23.1616 12.2121 23.1506C12.2116 23.1395 12.2134 23.1285 12.2173 23.1185C12.2213 23.1084 12.2273 23.0997 12.2348 23.093C12.3292 23.0105 12.4236 22.9247 12.5137 22.8381C12.5217 22.8304 12.5314 22.8255 12.5417 22.8238C12.5519 22.8222 12.5624 22.824 12.5719 22.8289C15.5176 24.3974 18.7069 24.3974 21.6178 22.8289C21.6273 22.8237 21.6379 22.8217 21.6483 22.8231C21.6587 22.8246 21.6686 22.8295 21.6767 22.8373C21.7668 22.9239 21.8612 23.0105 21.9563 23.093C21.9638 23.0996 21.9699 23.1083 21.9739 23.1183C21.978 23.1283 21.9798 23.1393 21.9793 23.1503C21.9788 23.1614 21.976 23.1721 21.9711 23.1816C21.9662 23.191 21.9594 23.1989 21.9513 23.2046C21.5027 23.5102 21.0327 23.771 20.5465 23.9843C20.5389 23.9876 20.5321 23.9928 20.5264 23.9994C20.5206 24.0061 20.5162 24.0141 20.5133 24.0229C20.5104 24.0317 20.5092 24.0411 20.5096 24.0505C20.51 24.0599 20.5122 24.0691 20.5159 24.0775C20.7852 24.6841 21.0923 25.2668 21.4347 25.8209C21.4416 25.8323 21.4515 25.8408 21.4628 25.8453C21.4741 25.8498 21.4864 25.85 21.4978 25.8459C23.1167 25.268 24.6392 24.3719 25.9997 23.1964C26.0064 23.1908 26.0119 23.1835 26.0159 23.1752C26.02 23.1669 26.0224 23.1576 26.0232 23.1481C26.3986 18.6201 25.3946 14.6869 23.3619 11.2002ZM14.1158 20.7625C13.2289 20.7625 12.4981 19.813 12.4981 18.6468C12.4981 17.4807 13.2147 16.5311 14.1158 16.5311C15.0239 16.5311 15.7476 17.4889 15.7334 18.6467C15.7334 19.813 15.0168 20.7625 14.1158 20.7625ZM20.0968 20.7625C19.2099 20.7625 18.4791 19.813 18.4791 18.6468C18.4791 17.4807 19.1958 16.5311 20.0968 16.5311C21.005 16.5311 21.7286 17.4889 21.7145 18.6467C21.7145 19.813 21.005 20.7625 20.0968 20.7625Z" fill="#4E5253"/>
</svg>
