<svg width="35" height="35" viewBox="0 0 35 35" fill="none" xmlns="http://www.w3.org/2000/svg">
<path d="M17.1007 0.848877C12.5931 0.848877 8.26602 2.64105 5.08118 5.82802C1.89305 9.01625 0.101591 13.3401 0.100708 17.8489C0.100708 22.3557 1.89368 26.6828 5.08118 29.8697C8.26602 33.0567 12.5931 34.8489 17.1007 34.8489C21.6084 34.8489 25.9354 33.0567 29.1202 29.8697C32.3077 26.6828 34.1007 22.3557 34.1007 17.8489C34.1007 13.342 32.3077 9.01499 29.1202 5.82802C25.9354 2.64105 21.6084 0.848877 17.1007 0.848877Z" fill="url(#paint0_linear_19_38)"/>
<path d="M7.79578 17.6693C12.7523 15.5103 16.0567 14.0868 17.7089 13.3991C22.4317 11.4354 23.4119 11.0943 24.052 11.0827C24.1928 11.0805 24.5062 11.1153 24.7108 11.2806C24.8808 11.4201 24.9286 11.6087 24.9525 11.7411C24.9737 11.8734 25.003 12.1749 24.9791 12.4102C24.7241 15.0983 23.6164 21.6215 23.0533 24.6324C22.8169 25.9063 22.3467 26.3335 21.8925 26.3752C20.9044 26.466 20.1553 25.7228 19.1991 25.0962C17.7036 24.1152 16.8589 23.5048 15.4059 22.5478C13.7272 21.4417 14.8162 20.8337 15.7725 19.8403C16.0222 19.5802 20.3731 15.6237 20.4555 15.2649C20.4661 15.22 20.4767 15.0526 20.3758 14.9645C20.2775 14.876 20.1314 14.9063 20.0252 14.9302C19.8737 14.9642 17.4858 16.5441 12.8533 19.6697C12.1759 20.1356 11.5623 20.3627 11.0098 20.3508C10.4042 20.3378 9.23547 20.0076 8.36687 19.7255C7.30437 19.3794 6.45703 19.1964 6.5314 18.6086C6.56859 18.3026 6.99094 17.9894 7.79578 17.6693Z" fill="#404544"/>
<defs>
<linearGradient id="paint0_linear_19_38" x1="1700.1" y1="0.848877" x2="1700.1" y2="3400.85" gradientUnits="userSpaceOnUse">
<stop stop-color="white"/>
<stop offset="1" stop-color="#229ED9"/>
</linearGradient>
</defs>
</svg>
