<svg width="35" height="35" viewBox="0 0 35 35" fill="none" xmlns="http://www.w3.org/2000/svg">
<g clip-path="url(#clip0_19_51)">
<path d="M11.4729 27.2387C11.4729 27.3715 11.3152 27.4778 11.1164 27.4778C10.8902 27.4977 10.7326 27.3915 10.7326 27.2387C10.7326 27.1059 10.8902 26.9997 11.089 26.9997C11.2947 26.9797 11.4729 27.086 11.4729 27.2387ZM9.34103 26.9399C9.29305 27.0727 9.43014 27.2254 9.63579 27.2653C9.81402 27.3317 10.0197 27.2653 10.0608 27.1325C10.1019 26.9997 9.97168 26.8469 9.76603 26.7872C9.5878 26.7407 9.38902 26.8071 9.34103 26.9399ZM12.3709 26.827C12.1721 26.8735 12.035 26.9997 12.0555 27.1524C12.0761 27.2852 12.2543 27.3715 12.46 27.3251C12.6588 27.2786 12.7959 27.1524 12.7753 27.0196C12.7547 26.8934 12.5697 26.8071 12.3709 26.827ZM16.8814 1.38013C7.37369 1.38013 0.100708 8.37271 0.100708 17.5833C0.100708 24.9477 4.88539 31.2497 11.7197 33.4676C12.5971 33.6204 12.9055 33.0958 12.9055 32.6641C12.9055 32.2524 12.885 29.9813 12.885 28.5868C12.885 28.5868 8.0866 29.5829 7.07893 26.6079C7.07893 26.6079 6.29748 24.6754 5.17329 24.1774C5.17329 24.1774 3.60353 23.1348 5.28297 23.1547C5.28297 23.1547 6.98982 23.2875 7.92893 24.868C9.43014 27.4313 11.9459 26.6942 12.9261 26.2559C13.0838 25.1934 13.5293 24.4563 14.0229 24.018C10.191 23.6063 6.3249 23.0684 6.3249 16.6801C6.3249 14.854 6.84587 13.9375 7.94264 12.7688C7.76442 12.3372 7.18176 10.5575 8.12087 8.25981C9.55353 7.82817 12.8507 10.0528 12.8507 10.0528C14.2217 9.68091 15.6955 9.48833 17.1555 9.48833C18.6156 9.48833 20.0894 9.68091 21.4604 10.0528C21.4604 10.0528 24.7576 7.82153 26.1902 8.25981C27.1293 10.5641 26.5467 12.3372 26.3685 12.7688C27.4652 13.9442 28.137 14.8606 28.137 16.6801C28.137 23.0883 24.0995 23.5997 20.2676 24.018C20.8983 24.5426 21.433 25.5387 21.433 27.0993C21.433 29.3372 21.4124 32.1063 21.4124 32.6508C21.4124 33.0825 21.7277 33.6071 22.5983 33.4543C29.4531 31.2497 34.1007 24.9477 34.1007 17.5833C34.1007 8.37271 26.389 1.38013 16.8814 1.38013ZM6.76361 24.2836C6.6745 24.35 6.69506 24.5028 6.8116 24.629C6.92127 24.7352 7.07893 24.7817 7.16805 24.6954C7.25716 24.629 7.2366 24.4762 7.12006 24.35C7.01039 24.2438 6.85272 24.1973 6.76361 24.2836ZM6.02329 23.7458C5.97531 23.8321 6.04385 23.9383 6.18095 24.0047C6.29063 24.0711 6.42772 24.0512 6.47571 23.9583C6.52369 23.8719 6.45514 23.7657 6.31805 23.6993C6.18095 23.6594 6.07127 23.6793 6.02329 23.7458ZM8.24426 26.1098C8.13458 26.1961 8.17571 26.3954 8.33337 26.5215C8.49103 26.6743 8.68982 26.6942 8.77893 26.5879C8.86805 26.5016 8.82692 26.3024 8.68982 26.1762C8.53901 26.0235 8.33337 26.0036 8.24426 26.1098ZM7.46281 25.1336C7.35313 25.2001 7.35313 25.3727 7.46281 25.5254C7.57248 25.6782 7.75756 25.7446 7.84668 25.6782C7.95635 25.5918 7.95635 25.4192 7.84668 25.2665C7.75071 25.1137 7.57248 25.0473 7.46281 25.1336Z" fill="white"/>
</g>
<defs>
<clipPath id="clip0_19_51">
<rect width="34" height="34" fill="white" transform="translate(0.100708 0.848877)"/>
</clipPath>
</defs>
</svg>
